<?xml version="1.0" encoding="iso-8859-1"?>
<!-- Generator: Adobe Illustrator 23.0.4, SVG Export Plug-In . SVG Version: 6.00 Build 0)  -->
<svg version="1.1" xmlns="http://www.w3.org/2000/svg" xmlns:xlink="http://www.w3.org/1999/xlink" x="0px" y="0px"
	 viewBox="0 0 64 64" style="enable-background:new 0 0 64 64;" xml:space="preserve">
<g id="mother-heart">
	<path style="fill:#262626;" d="M58.03,49.472C57.247,47.66,47.868,44,42.072,41.889l-1.881-5.209
		c0.877-0.834,2.664-2.953,3.54-6.919c0.085-0.374,0.153-0.766,0.221-1.174c0.426-2.621,0.672-4.868,0.757-6.868
		c0.068-1.855,0-3.481-0.213-4.919c1.6,2.689,1.915,6.196,2.23,9.847c0.213,2.391,0.426,4.86,1.013,7.209
		c0.196,0.783,0.868,1.302,1.651,1.302h0.094c0.826-0.043,1.472-0.647,1.591-1.455l0.213-1.489
		c1.226-8.34,3.498-23.855-3.277-29.472c-2.604-2.162-5.328-3.047-8.102-2.647c-4.468,0.655-7.617,4.477-8.494,5.66
		c-7.004,0.332-10.587,5.532-11.6,8.621c-0.545,1.66-0.8,3.609-0.8,5.949c0,0.451,0.008,0.919,0.026,1.396
		c0.077,1.983,0.315,4.23,0.74,6.868c0.068,0.417,0.145,0.809,0.23,1.2c0.885,3.966,2.681,6.077,3.549,6.911l-1.66,5.098
		C16.106,43.906,6.745,47.557,5.97,49.37c-0.783,1.821-1.302,3.872-1.319,3.957l1.651,0.417c0-0.026,0.502-2.009,1.217-3.677
		c0.664-0.996,8.119-4.17,14.843-6.63l9.498,9.626l9.762-9.523c6.723,2.46,14.187,5.643,14.843,6.596
		c0.732,1.711,1.225,3.694,1.234,3.711l1.651-0.408C59.324,53.353,58.813,51.302,58.03,49.472z M40.157,1.779
		c2.272-0.332,4.553,0.434,6.766,2.272c6.034,5.004,3.77,20.477,2.681,27.915l-0.213,1.481c-0.553-2.221-0.766-4.621-0.97-6.945
		c-0.443-5.072-0.911-10.315-5.081-13.523c-1.404-2.843-4.528-6.417-9.813-7.123C34.77,4.442,37.153,2.221,40.157,1.779z
		 M21.434,14.91c0.894-2.732,4.102-7.379,10.426-7.481c6.323,0.085,9.54,4.74,10.451,7.481c0.579,1.745,0.808,3.949,0.698,6.732
		c-0.017,0.391-0.043,0.809-0.077,1.217c-3.813,0.528-6.553-2.289-9.455-5.268c-1.021-1.055-2.085-2.145-3.183-3.047
		c-0.885-0.74-1.932-0.996-3.013-0.749c-2.604,0.587-5.064,4.051-6.562,6.638C20.711,18.23,20.94,16.408,21.434,14.91z
		 M21.672,29.421c-0.077-0.357-0.145-0.723-0.213-1.106c-0.264-1.685-0.451-3.192-0.579-4.579c1.089-2.281,4.153-7.685,6.775-8.281
		c0.57-0.136,1.072,0,1.557,0.4c1.03,0.851,2.009,1.855,3.047,2.928c2.689,2.766,5.694,5.847,9.77,5.847
		c0.247,0,0.502-0.017,0.749-0.043c-0.119,1.157-0.289,2.391-0.502,3.728c-0.06,0.374-0.128,0.732-0.204,1.072
		c-1.013,4.57-3.353,6.332-3.37,6.349c-0.085,0.06-0.162,0.136-0.221,0.23c-0.026,0.043-2.468,3.787-6.613,3.787
		c-4.136,0-6.587-3.745-6.604-3.787c-0.06-0.085-0.136-0.17-0.221-0.23C25.017,35.719,22.694,33.957,21.672,29.421z M31.885,50.664
		l-8.332-8.443l1.311-4.043c1.26,1.353,3.634,3.277,7.004,3.277c3.404,0,5.796-1.957,7.047-3.311l1.506,4.187L31.885,50.664z
		 M52.481,54.808c-0.672-1.336-1.591-2.077-2.723-2.213c-1.566-0.179-3.038,0.902-3.855,1.668c-0.826-0.766-2.298-1.855-3.872-1.66
		c-1.132,0.128-2.051,0.868-2.715,2.204c-1.906,3.762,4.213,7.915,6.136,9.106C45.545,63.966,45.655,64,45.783,64
		c1.234,0,3.864-2.383,4.196-2.681C53.247,58.306,53.145,56.119,52.481,54.808z M50.983,57.217c-0.783,2.128-3.932,4.357-5.03,4.996
		c-2.545-1.634-6.136-4.647-5.123-6.638c0.4-0.791,0.868-1.217,1.404-1.285c0.051-0.009,0.102-0.009,0.162-0.009
		c1.106,0,2.451,1.277,2.86,1.753l0.647,0.757l0.647-0.766c0.417-0.494,1.872-1.864,3.013-1.736
		c0.528,0.068,0.996,0.494,1.396,1.285C51.204,56.051,51.213,56.596,50.983,57.217z"/>
	<path style="fill:#D43004;" d="M50.983,57.217c-0.783,2.128-3.932,4.357-5.03,4.996c-2.545-1.634-6.136-4.647-5.123-6.638
		c0.4-0.791,0.868-1.217,1.404-1.285c0.051-0.009,0.102-0.009,0.162-0.009c1.106,0,2.451,1.277,2.86,1.753l0.647,0.757l0.647-0.766
		c0.417-0.494,1.872-1.864,3.013-1.736c0.528,0.068,0.996,0.494,1.396,1.285C51.204,56.051,51.213,56.596,50.983,57.217z"/>
	<path style="fill:#CD8927;" d="M49.604,31.966l-0.213,1.481c-0.553-2.221-0.766-4.621-0.97-6.945
		c-0.443-5.072-0.911-10.315-5.081-13.523c-1.404-2.843-4.528-6.417-9.813-7.123c1.243-1.413,3.626-3.634,6.63-4.077
		c2.272-0.332,4.553,0.434,6.766,2.272C52.957,9.055,50.694,24.528,49.604,31.966z M42.311,14.91
		C41.4,12.17,38.183,7.515,31.86,7.43c-6.323,0.102-9.532,4.749-10.426,7.481c-0.494,1.498-0.723,3.319-0.715,5.523
		c1.498-2.587,3.957-6.051,6.562-6.638c1.081-0.247,2.128,0.009,3.013,0.749c1.098,0.902,2.162,1.992,3.183,3.047
		c2.902,2.979,5.643,5.796,9.455,5.268c0.034-0.408,0.06-0.826,0.077-1.217C43.119,18.859,42.889,16.655,42.311,14.91z"/>
	<path style="fill:#FEEAA0;" d="M42.779,24.587c-0.119,1.157-0.289,2.391-0.502,3.728c-0.06,0.374-0.128,0.732-0.204,1.072
		c-1.013,4.57-3.353,6.332-3.37,6.349c-0.085,0.06-0.162,0.136-0.221,0.23c-0.026,0.043-2.468,3.787-6.613,3.787
		c-4.136,0-6.587-3.745-6.604-3.787c-0.06-0.085-0.136-0.17-0.221-0.23c-0.026-0.017-2.349-1.779-3.37-6.315
		c-0.077-0.357-0.145-0.723-0.213-1.106c-0.264-1.685-0.451-3.192-0.579-4.579c1.089-2.281,4.153-7.685,6.775-8.281
		c0.57-0.136,1.072,0,1.557,0.4c1.03,0.851,2.009,1.855,3.047,2.928c2.689,2.766,5.694,5.847,9.77,5.847
		C42.277,24.63,42.532,24.613,42.779,24.587z"/>
</g>
<g id="Layer_1">
</g>
</svg>
